<svg xmlns="http://www.w3.org/2000/svg" width="424" height="88" viewBox="0 0 424 88" fill="none"><path d="M97 71.4662V29.3559H112.278C116.681 29.3559 120.356 30.3048 123.303 32.2028C126.288 34.0611 128.526 36.5917 130.019 39.7945C131.548 42.9577 132.313 46.4768 132.313 50.3517C132.313 54.6221 131.474 58.3389 129.795 61.5021C128.153 64.6653 125.821 67.1168 122.799 68.8566C119.815 70.5963 116.308 71.4662 112.278 71.4662H97ZM121.232 50.3517C121.232 48.177 120.878 46.2791 120.169 44.6579C119.46 42.9972 118.434 41.7122 117.091 40.8028C115.748 39.8933 114.144 39.4386 112.278 39.4386H107.913V61.3835H112.278C114.181 61.3835 115.785 60.909 117.091 59.96C118.434 59.011 119.46 57.7062 120.169 56.0455C120.878 54.3453 121.232 52.4474 121.232 50.3517Z" fill="#EB404E"></path><path d="M137.06 71.4662V29.3559H155.304C157.245 29.3559 159.035 29.771 160.677 30.6014C162.319 31.4317 163.736 32.5586 164.93 33.9821C166.124 35.366 167.038 36.9278 167.672 38.6676C168.344 40.4074 168.68 42.1669 168.68 43.9462C168.68 45.5674 168.456 47.1292 168.008 48.6317C167.561 50.1343 166.908 51.5182 166.05 52.7834C165.191 54.0092 164.165 55.0768 162.972 55.9862L171.366 71.4662H159.39L152.394 58.5366H147.973V71.4662H137.06ZM147.973 48.4538H154.857C155.304 48.4538 155.734 48.2759 156.144 47.92C156.554 47.5641 156.89 47.0501 157.151 46.3779C157.45 45.7057 157.599 44.8952 157.599 43.9462C157.599 42.9577 157.431 42.1471 157.095 41.5145C156.797 40.8423 156.405 40.3283 155.92 39.9724C155.472 39.6165 155.025 39.4386 154.577 39.4386H147.973V48.4538Z" fill="#EB404E"></path><path d="M184.003 29.3559H196.203L208.851 71.4662H197.77L195.364 63.2221H184.787L182.436 71.4662H171.299L184.003 29.3559ZM193.629 55.5117L190.103 40.6841L186.41 55.5117H193.629Z" fill="#EB404E"></path><path d="M212.153 71.4662V29.3559H223.066V45.3697L235.154 29.3559H247.466L233.027 48.2166L248.473 71.4662H235.937L226.088 55.9862L223.066 59.3076V71.4662H212.153Z" fill="#EB404E"></path><path d="M279.11 61.3835V71.4662H250.792V29.3559H278.606V39.4386H261.705V45.3697H276.143V54.7407H261.705V61.3835H279.11Z" fill="#EB404E"></path><path d="M308.249 43.1159C308.249 43.1159 307.932 42.9182 307.298 42.5228C306.663 42.1274 305.824 41.6924 304.779 41.2179C303.734 40.7039 302.597 40.2492 301.365 39.8538C300.134 39.4584 298.922 39.2607 297.728 39.2607C296.795 39.2607 296.03 39.4189 295.433 39.7352C294.836 40.0515 294.538 40.5853 294.538 41.3366C294.538 42.0483 294.836 42.6216 295.433 43.0566C296.03 43.4915 296.87 43.8869 297.952 44.2428C299.071 44.5986 300.395 45.0336 301.925 45.5476C304.387 46.3384 306.514 47.2478 308.305 48.2759C310.096 49.3039 311.476 50.6285 312.446 52.2497C313.416 53.8313 313.901 55.9467 313.901 58.5959C313.901 61.1264 313.472 63.2616 312.614 65.0014C311.756 66.7016 310.599 68.0658 309.144 69.0938C307.689 70.1218 306.066 70.8731 304.275 71.3476C302.485 71.7825 300.656 72 298.791 72C296.888 72 294.892 71.8023 292.803 71.4069C290.751 70.972 288.755 70.3986 286.815 69.6869C284.875 68.9356 283.102 68.0657 281.498 67.0772L286.199 56.9352C286.199 56.9352 286.572 57.1724 287.318 57.6469C288.065 58.1214 289.053 58.6552 290.284 59.2483C291.516 59.8414 292.877 60.3752 294.37 60.8497C295.9 61.3241 297.429 61.5614 298.959 61.5614C300.153 61.5614 300.974 61.4032 301.421 61.0869C301.906 60.731 302.149 60.2763 302.149 59.7228C302.149 58.8924 301.738 58.2598 300.918 57.8248C300.097 57.3503 299.015 56.9154 297.672 56.52C296.366 56.0851 294.911 55.5908 293.307 55.0372C290.993 54.2069 289.091 53.2777 287.598 52.2497C286.106 51.1821 285.005 49.9366 284.296 48.5131C283.587 47.0501 283.233 45.2906 283.233 43.2345C283.233 40.1108 283.923 37.5011 285.304 35.4055C286.684 33.3099 288.494 31.7283 290.732 30.6607C293.008 29.5536 295.452 29 298.063 29C300.004 29 301.869 29.257 303.66 29.771C305.488 30.2455 307.186 30.8386 308.753 31.5503C310.357 32.2621 311.756 32.9343 312.95 33.5669L308.249 43.1159Z" fill="#EB404E"></path><path d="M336.633 71.8221C333.611 71.8221 330.869 71.229 328.406 70.0428C325.944 68.817 323.817 67.1959 322.027 65.1793C320.273 63.1232 318.911 60.8299 317.941 58.2993C317.008 55.7292 316.542 53.08 316.542 50.3517C316.542 47.5444 317.046 44.8754 318.053 42.3448C319.06 39.8143 320.46 37.5605 322.25 35.5834C324.079 33.5669 326.224 31.9853 328.686 30.8386C331.186 29.692 333.91 29.1186 336.857 29.1186C339.879 29.1186 342.621 29.7315 345.084 30.9572C347.546 32.1434 349.654 33.7646 351.408 35.8207C353.161 37.8768 354.504 40.1899 355.437 42.76C356.407 45.2906 356.892 47.9002 356.892 50.589C356.892 53.3568 356.388 56.006 355.381 58.5366C354.411 61.0671 353.012 63.3407 351.184 65.3572C349.393 67.3343 347.266 68.9159 344.804 70.1021C342.341 71.2487 339.618 71.8221 336.633 71.8221ZM327.623 50.4703C327.623 51.8938 327.809 53.2777 328.183 54.6221C328.556 55.9269 329.115 57.1131 329.862 58.1807C330.608 59.2087 331.54 60.0391 332.66 60.6717C333.816 61.2648 335.178 61.5614 336.745 61.5614C338.312 61.5614 339.674 61.2451 340.83 60.6124C341.987 59.9798 342.92 59.1297 343.629 58.0621C344.375 56.9549 344.916 55.749 345.252 54.4441C345.625 53.0998 345.811 51.7356 345.811 50.3517C345.811 48.9283 345.625 47.5641 345.252 46.2593C344.879 44.9545 344.319 43.788 343.573 42.76C342.826 41.6924 341.875 40.8621 340.719 40.269C339.562 39.6759 338.219 39.3793 336.689 39.3793C335.122 39.3793 333.76 39.6956 332.604 40.3283C331.484 40.9609 330.552 41.811 329.806 42.8786C329.059 43.9067 328.5 45.0929 328.127 46.4372C327.791 47.7421 327.623 49.0864 327.623 50.4703Z" fill="#EB404E"></path><path d="M361.517 71.4662V29.3559H388.772V39.4386H372.43V46.4372H385.75V55.8083H372.43V71.4662H361.517Z" fill="#EB404E"></path><path d="M424 39.4386H412.583V71.4662H401.67V39.4386H390.198V29.3559H424V39.4386Z" fill="#EB404E"></path><path fill-rule="evenodd" clip-rule="evenodd" d="M86.6008 71.3943C82.5728 69.2796 81.868 66.0572 80.6596 58.0013C78.6456 59.3104 78.0834 62.13 78.0834 62.13C75.6613 61.6229 73.6243 60.5312 71.8988 59.0033C71.1737 58.4115 66.3603 54.9804 61.9296 52.3622C59.526 51.0573 57.2207 49.9828 55.1109 48.9995C53.3316 48.1701 51.6913 47.4056 50.2485 46.6224C49.2794 46.0963 48.2684 45.5778 47.239 45.0499C40.7816 41.7383 33.603 38.0568 31.5186 29.8057C32.9349 35.8704 36.6431 42.0792 41.0091 47.9315C42.9812 49.4084 48.0936 52.8657 52.766 54.8797C57.4384 56.8936 66.445 61.9622 70.3643 64.2447C70.5606 62.5438 70.8543 60.9086 71.2946 60.116C73.0065 63.3384 74.6176 64.8489 77.2358 66.9635C78.5495 69.352 80.2575 70.5133 82.3265 71.92C82.6035 72.1084 82.8871 72.3012 83.177 72.502C83.177 76.9327 87.0836 81.3635 89.8232 83.8809C90.226 83.8809 90.7183 83.9704 91.2106 84.06C91.4567 84.1047 91.7029 84.1495 91.9378 84.183C88.212 79.1481 85.6817 75.5301 86.6008 71.3943Z" fill="url(#paint0_linear_111_213)"></path><path d="M35.5469 21.1468C48.9398 35.7481 52.0703 4.42686 53.2699 0C53.2699 8.8615 53.9546 44.7908 61.93 52.3634C51.3566 44.5089 41.3874 30.2096 35.5469 21.1468Z" fill="url(#paint1_linear_111_213)"></path><path d="M50.2489 46.6238C43.7035 36.9567 37.1581 26.5847 35.5469 21.147C41.3874 30.2099 51.3566 44.5091 61.93 52.3636C57.4992 49.9581 53.4024 48.3356 50.2489 46.6238Z" fill="url(#paint2_linear_111_213)"></path><path d="M53.2695 0C56.3115 12.1679 60.4191 23.9663 62.5338 36.0502C64.0881 44.932 67.9239 55.485 71.8988 59.0045C71.1738 58.4127 66.3604 54.9815 61.9296 52.3634C53.9543 44.7908 53.2695 8.8615 53.2695 0Z" fill="url(#paint3_linear_111_213)"></path><path d="M91.938 84.1834C90.3268 85.0897 89.0177 85.1904 88.5143 87.4058C88.3129 85.6939 89.0177 84.0827 89.8233 83.8813C90.4275 83.8813 91.2331 84.0827 91.938 84.1834Z" fill="url(#paint4_linear_111_213)"></path><path d="M91.938 84.1834C90.3268 85.0897 89.0177 85.1904 88.5143 87.4058C88.3129 85.6939 89.0177 84.0827 89.8233 83.8813C90.4275 83.8813 91.2331 84.0827 91.938 84.1834Z" fill="url(#paint5_linear_111_213)"></path><path d="M88.5147 87.4066C82.3599 83.2372 79.049 80.2569 73.4099 77.5381C71.7987 75.7255 69.7848 73.8122 69.9862 69.4822C70.021 68.7326 70.1123 66.4349 70.365 64.2458C70.5612 62.545 70.8549 60.9097 71.2952 60.1172C73.0071 63.3395 74.6183 64.85 77.2365 66.9647C78.726 69.673 80.7227 70.8036 83.1777 72.5031C83.1777 76.9339 87.0843 81.3647 89.8238 83.8821C89.0182 84.0835 88.3133 85.6947 88.5147 87.4066Z" fill="url(#paint6_linear_111_213)"></path><path d="M73.4094 77.5371C68.0724 74.9639 64.3465 73.6268 61.3255 72.9049C58.5571 67.5612 48.7496 58.3068 41.0093 47.9316C42.9814 49.4086 48.0937 52.8659 52.7661 54.8799C57.4386 56.8938 66.4452 61.9623 70.3644 64.2448C70.1118 66.4339 70.0205 68.7316 69.9856 69.4812C69.7842 73.8112 71.7982 75.7245 73.4094 77.5371Z" fill="url(#paint7_linear_111_213)"></path><path d="M0 12.2856C7.75381 21.0464 18.0251 35.7484 30.8138 7.95557C29.5048 14.1989 30.1089 22.3555 31.5187 29.8072C32.935 35.872 36.6433 42.0808 41.0093 47.933C48.7496 58.3082 58.5571 67.5625 61.3256 72.9063C28.4575 55.5055 4.63215 28.4981 0 12.2856Z" fill="url(#paint8_linear_111_213)"></path><path d="M61.3256 72.9058C49.9466 70.187 17.0181 63.3395 0 42.5955C5.43774 33.5326 2.41677 23.8655 0 12.2852C4.63215 28.4977 28.4575 55.5051 61.3256 72.9058Z" fill="url(#paint9_linear_111_213)"></path><defs><linearGradient id="paint0_linear_111_213" x1="31.6193" y1="38.4658" x2="97.7784" y2="80.1551" gradientUnits="userSpaceOnUse"><stop stop-color="#FFAC3E"></stop><stop offset="0.303952" stop-color="#EB404E"></stop><stop offset="1" stop-color="#1E2F4D"></stop></linearGradient><linearGradient id="paint1_linear_111_213" x1="48.7384" y1="-1.39111e-07" x2="58.0027" y2="60.9228" gradientUnits="userSpaceOnUse"><stop stop-color="#FFAC3E"></stop><stop offset="0.528125" stop-color="#EB404E"></stop><stop offset="0.824593" stop-color="#1E2F4D"></stop></linearGradient><linearGradient id="paint2_linear_111_213" x1="38.4671" y1="22.7582" x2="53.572" y2="53.572" gradientUnits="userSpaceOnUse"><stop offset="0.031459" stop-color="#EB404E"></stop><stop offset="1" stop-color="#1E2F4D"></stop></linearGradient><linearGradient id="paint3_linear_111_213" x1="62.5842" y1="0" x2="62.5842" y2="59.0045" gradientUnits="userSpaceOnUse"><stop stop-color="#1E2F4D"></stop><stop offset="0.922359" stop-color="#EB404E"></stop></linearGradient><linearGradient id="paint4_linear_111_213" x1="88.615" y1="88.5135" x2="93.2471" y2="82.8744" gradientUnits="userSpaceOnUse"><stop stop-color="#1E2F4D"></stop><stop offset="1" stop-color="#EB404E"></stop></linearGradient><linearGradient id="paint5_linear_111_213" x1="88.615" y1="88.5135" x2="93.2471" y2="82.8744" gradientUnits="userSpaceOnUse"><stop stop-color="#1E2F4D"></stop><stop offset="1" stop-color="#EB404E"></stop></linearGradient><linearGradient id="paint6_linear_111_213" x1="71.4966" y1="60.7214" x2="84.9903" y2="83.9828" gradientUnits="userSpaceOnUse"><stop stop-color="#FFAC3E"></stop><stop offset="1" stop-color="#EB404E"></stop></linearGradient><linearGradient id="paint7_linear_111_213" x1="63.4402" y1="53.4701" x2="66.9647" y2="77.1343" gradientUnits="userSpaceOnUse"><stop stop-color="#1E2F4D"></stop><stop offset="1" stop-color="#EB404E"></stop></linearGradient><linearGradient id="paint8_linear_111_213" x1="10.2713" y1="10.3723" x2="61.4263" y2="79.6531" gradientUnits="userSpaceOnUse"><stop stop-color="#1E2F4D"></stop><stop offset="0.361458" stop-color="#EB404E"></stop><stop offset="1" stop-color="#FFAC3E"></stop></linearGradient><linearGradient id="paint9_linear_111_213" x1="-4.02795" y1="23.6641" x2="56.5927" y2="78.3436" gradientUnits="userSpaceOnUse"><stop stop-color="#FFAC3E"></stop><stop offset="0.444792" stop-color="#EB404E"></stop><stop offset="1" stop-color="#1E2F4D"></stop></linearGradient></defs></svg>